<svg xmlns="http://www.w3.org/2000/svg" width="375" viewBox="0 0 375 375" height="375" version="1.0"><path fill="#CB6CE6" d="M 175.488281 330.351562 C 185.148438 320.6875 185.148438 305.023438 175.488281 295.359375 C 165.824219 285.695312 150.15625 285.695312 140.496094 295.359375 C 130.832031 305.023438 130.832031 320.6875 140.496094 330.351562 C 150.15625 340.015625 165.824219 340.015625 175.488281 330.351562"/><path fill="#CB6CE6" d="M 187.5 -0.015625 C 83.9375 -0.015625 -0.015625 83.9375 -0.015625 187.5 C -0.015625 192.054688 0.160156 196.570312 0.476562 201.039062 C 46.230469 157.097656 117.324219 154.996094 165.480469 194.78125 L 222.011719 138.246094 C 213.824219 124.378906 215.6875 106.222656 227.597656 94.304688 C 241.722656 80.1875 264.613281 80.1875 278.734375 94.304688 C 292.859375 108.429688 292.859375 131.324219 278.734375 145.445312 C 266.824219 157.359375 248.660156 159.222656 234.796875 151.03125 L 178.558594 207.269531 C 221.632812 254.769531 221.382812 327.542969 177.847656 374.769531 C 181.042969 374.933594 184.261719 375.015625 187.5 375.015625 C 291.0625 375.015625 375.015625 291.0625 375.015625 187.5 C 375.015625 83.9375 291.0625 -0.015625 187.5 -0.015625"/><path fill="#CB6CE6" d="M 46.757812 201.625 C 37.09375 211.289062 37.09375 226.957031 46.757812 236.617188 C 56.421875 246.28125 72.085938 246.28125 81.75 236.617188 C 91.414062 226.957031 91.414062 211.289062 81.75 201.625 C 72.085938 191.964844 56.421875 191.964844 46.757812 201.625"/></svg>