<svg xmlns="http://www.w3.org/2000/svg" width="375" viewBox="0 0 375 375" height="375" version="1.0"><defs><clipPath id="a"><path d="M 48 260 L 327 260 L 327 344.203125 L 48 344.203125 Z M 48 260"/></clipPath><clipPath id="b"><path d="M 48 30.703125 L 327 30.703125 L 327 115 L 48 115 Z M 48 30.703125"/></clipPath></defs><path fill="#00C2CB" d="M 62.84375 148.03125 C 41.097656 148.03125 23.40625 165.71875 23.40625 187.453125 C 23.40625 209.1875 41.097656 226.871094 62.84375 226.871094 L 312.046875 226.871094 C 333.785156 226.871094 351.476562 209.1875 351.476562 187.453125 C 351.476562 165.71875 333.785156 148.03125 312.046875 148.03125 Z M 312.046875 249.949219 L 62.84375 249.949219 C 28.367188 249.949219 0.324219 221.914062 0.324219 187.453125 C 0.324219 152.992188 28.367188 124.957031 62.84375 124.957031 L 312.046875 124.957031 C 346.515625 124.957031 374.558594 152.992188 374.558594 187.453125 C 374.558594 221.914062 346.515625 249.949219 312.046875 249.949219"/><g clip-path="url(#a)"><path fill="#00C2CB" d="M 55.472656 261.085938 C 53.226562 261.085938 51.015625 260.972656 48.828125 260.773438 C 75.144531 310.402344 127.34375 344.207031 187.445312 344.207031 C 247.542969 344.207031 299.738281 310.402344 326.058594 260.773438 C 323.867188 260.972656 321.65625 261.085938 319.417969 261.085938 L 55.472656 261.085938"/></g><g clip-path="url(#b)"><path fill="#00C2CB" d="M 319.417969 113.816406 C 321.65625 113.816406 323.867188 113.9375 326.058594 114.136719 C 299.738281 64.507812 247.542969 30.695312 187.445312 30.695312 C 127.34375 30.695312 75.144531 64.507812 48.828125 114.136719 C 51.015625 113.9375 53.226562 113.816406 55.472656 113.816406 L 319.417969 113.816406"/></g><path fill="#00C2CB" d="M 271.714844 203.378906 C 271.714844 207.675781 268.226562 211.15625 263.933594 211.15625 C 259.636719 211.15625 256.152344 207.675781 256.152344 203.378906 L 256.152344 171.527344 C 256.152344 167.230469 259.636719 163.75 263.933594 163.75 C 268.226562 163.75 271.714844 167.230469 271.714844 171.527344 L 271.714844 203.378906"/><path fill="#00C2CB" d="M 118.730469 203.378906 C 118.730469 207.675781 115.25 211.15625 110.957031 211.15625 C 106.660156 211.15625 103.175781 207.675781 103.175781 203.378906 L 103.175781 171.527344 C 103.175781 167.230469 106.660156 163.75 110.957031 163.75 C 115.25 163.75 118.730469 167.230469 118.730469 171.527344 L 118.730469 203.378906"/></svg>